<mxfile host="app.diagrams.net" modified="2023-05-03T09:34:59.860Z" agent="Mozilla/5.0 (Macintosh; Intel Mac OS X 10.15; rv:109.0) Gecko/20100101 Firefox/112.0" etag="Cb57Up_Tm6aORxMRDZvO" version="21.2.1" type="device">
  <diagram name="Page-1" id="4WWSPev-25rV4EjtUSaq">
    <mxGraphModel dx="702" dy="451" grid="1" gridSize="10" guides="1" tooltips="1" connect="1" arrows="1" fold="1" page="1" pageScale="1" pageWidth="850" pageHeight="1100" math="0" shadow="0">
      <root>
        <mxCell id="0" />
        <mxCell id="1" parent="0" />
        <mxCell id="nwv-rZZuCV3l7r20aJfZ-5" style="edgeStyle=orthogonalEdgeStyle;rounded=0;orthogonalLoop=1;jettySize=auto;html=1;exitX=1;exitY=0.5;exitDx=0;exitDy=0;entryX=0;entryY=0.5;entryDx=0;entryDy=0;" parent="1" source="nwv-rZZuCV3l7r20aJfZ-1" target="nwv-rZZuCV3l7r20aJfZ-4" edge="1">
          <mxGeometry relative="1" as="geometry" />
        </mxCell>
        <mxCell id="nwv-rZZuCV3l7r20aJfZ-1" value="Regex engine" style="rounded=1;whiteSpace=wrap;html=1;fillColor=#dae8fc;strokeColor=#6c8ebf;strokeWidth=2;" parent="1" vertex="1">
          <mxGeometry x="420" y="210" width="120" height="60" as="geometry" />
        </mxCell>
        <mxCell id="nwv-rZZuCV3l7r20aJfZ-3" style="edgeStyle=orthogonalEdgeStyle;rounded=0;orthogonalLoop=1;jettySize=auto;html=1;exitX=0.5;exitY=1;exitDx=0;exitDy=0;entryX=0.5;entryY=0;entryDx=0;entryDy=0;" parent="1" source="nwv-rZZuCV3l7r20aJfZ-2" target="nwv-rZZuCV3l7r20aJfZ-1" edge="1">
          <mxGeometry relative="1" as="geometry" />
        </mxCell>
        <mxCell id="nwv-rZZuCV3l7r20aJfZ-2" value="Input text" style="text;html=1;strokeColor=default;fillColor=none;align=center;verticalAlign=middle;whiteSpace=wrap;rounded=0;strokeWidth=2;" parent="1" vertex="1">
          <mxGeometry x="450" y="140" width="60" height="30" as="geometry" />
        </mxCell>
        <mxCell id="nwv-rZZuCV3l7r20aJfZ-4" value="Matched substrings" style="text;html=1;strokeColor=#82b366;fillColor=#d5e8d4;align=center;verticalAlign=middle;whiteSpace=wrap;rounded=0;strokeWidth=2;" parent="1" vertex="1">
          <mxGeometry x="600" y="225" width="60" height="30" as="geometry" />
        </mxCell>
        <mxCell id="nwv-rZZuCV3l7r20aJfZ-7" style="edgeStyle=orthogonalEdgeStyle;rounded=0;orthogonalLoop=1;jettySize=auto;html=1;exitX=1;exitY=0.5;exitDx=0;exitDy=0;entryX=0;entryY=0.5;entryDx=0;entryDy=0;" parent="1" source="nwv-rZZuCV3l7r20aJfZ-6" target="nwv-rZZuCV3l7r20aJfZ-1" edge="1">
          <mxGeometry relative="1" as="geometry" />
        </mxCell>
        <mxCell id="nwv-rZZuCV3l7r20aJfZ-6" value="Compiler" style="rounded=1;whiteSpace=wrap;html=1;strokeWidth=2;fillColor=#dae8fc;strokeColor=#6c8ebf;" parent="1" vertex="1">
          <mxGeometry x="260" y="210" width="120" height="60" as="geometry" />
        </mxCell>
        <mxCell id="nwv-rZZuCV3l7r20aJfZ-9" style="edgeStyle=orthogonalEdgeStyle;rounded=0;orthogonalLoop=1;jettySize=auto;html=1;exitX=1;exitY=0.5;exitDx=0;exitDy=0;entryX=0;entryY=0.5;entryDx=0;entryDy=0;" parent="1" source="nwv-rZZuCV3l7r20aJfZ-8" target="nwv-rZZuCV3l7r20aJfZ-6" edge="1">
          <mxGeometry relative="1" as="geometry" />
        </mxCell>
        <mxCell id="nwv-rZZuCV3l7r20aJfZ-8" value="created&lt;br&gt;&lt;div&gt;regular expression&lt;/div&gt;" style="text;html=1;strokeColor=default;fillColor=none;align=center;verticalAlign=middle;whiteSpace=wrap;rounded=0;strokeWidth=2;" parent="1" vertex="1">
          <mxGeometry x="110" y="221.25" width="110" height="37.5" as="geometry" />
        </mxCell>
      </root>
    </mxGraphModel>
  </diagram>
</mxfile>
